<?xml version="1.0" encoding="UTF-8"?><svg id="Layer_1" xmlns="http://www.w3.org/2000/svg" viewBox="0 0 256 204.79"><defs><style>.cls-1{fill:#231f20;stroke-width:0px;}</style></defs><path class="cls-1" d="m250.98,68.54c-6.58-12.44-19.47-21.28-33.43-22.99-17.54-1.56-34.86,4.77-52.05,7.66-5.5,1.14-10.19-4.2-8.29-9.56C168.19,13.83,137.49-2.37,111.56.28c-17.34.08-22.01,18.32-35,25.89-6.12,3.23-13.95,4.74-20.53,6.97C39.43,38.79,5.37,38.48.44,59.31c-3.13,15.47,11.16,26.68,22.52,34.11,5.88,3.99,11.8,8.03,18.28,11.07,5.94,3.55,12.38,3,18.05,6.07,10.85,7.94,7.46,29.47,2.72,40.17-5.13,11.44-14.99,21.85-7.9,35.88,6.77,12.68,21.95,16.55,35.16,17.65,16.02,1.51,33.41.19,45.98-9.8,5.19-4.11,9.33-9.56,14.99-13.03,17.93-11.04,44.55,1.06,60.78-12.4,8.44-6.97,10.99-18.61,16.44-28.09,6.64-11.53,17.74-20.07,23.81-31.87,6.42-12.52,6.3-28.15-.28-40.55Zm-218.06,16.51c-8.12-4.38-16.55-11.45-16.48-21.37.02-8.8,7.7-17.76,16.87-17.06.29,0,.59.05.89.09.29.08.62.07.89.16.14.06.24.19.27.42.01.55-.47.73-.89.91-9.83,4.67-12.43,17.08-5.41,25.36,2.38,3.6,5.55,6.91,7.62,10.72.45,2.68-2.39,1.7-3.76.78Zm41.66-28.46c5.29-1.44,12.81.05,15.85-5.62.46-.96.72-2.09,1.51-2.81.93-.9,2.41-.9,3.68-.88,7.31-.22,10.19,3.35,10.99,10.36.36,2.33.45,5.22-1.54,6.42-4.2,1.18-8.32.71-12.88,2.95-6.51,2.86-14.03,8.71-21.22,4.77-6.91-4.01-2.74-13.46,3.6-15.18Zm61.29,118.5c-8.7,1.32-16.56,4.55-22.57,11.14-3.58,3.93-8.83,5.81-14.03,6.22-19.63,1.55-34.94-14.06-27.59-33.65.25-.69,1.71-4.97,2.97-3.35.47.61.62,1.88.5,2.59-.68,3.84-1.41,8.1-.24,11.91,3.72,11.43,18.54,16.5,29.34,12.74,3.66-1.3,5.97-3.77,9.56-5.94,6.85-3.8,14.76-4.61,22.11-2.89.66.15.64,1.12-.03,1.23Zm24.44-8.48c-1.32,1.65-2.44,3.15-4.77,3.66-1.43.2-3.08-.11-4.49-.36-1.6-.29-4.19-1-4.33-3.02-.01-.74.27-1.56.81-2.08,2.05-1.44,4.68,1.39,6.79.45.89-.55,1.51-1.81,2.47-2.51,3.33-2.41,5.5,1.45,3.53,3.86Zm6.43-50.25c-2.09,2.6-5.67,3.45-8.99,4.14-7.58,1.53-15.33,3.1-22.17,6.72-2.66,1.42-5.16,3.16-7.94,4.32-22.2,7.89-30.54-10.88-11.92-24.24,10.48-7.65,23.94-6.7,36.13-9.35,3.17-.54,6.75-.78,9.61.97,5.14,3.51,9.52,11.79,5.28,17.44Z"/></svg>