<?xml version="1.0" encoding="UTF-8"?><svg id="Layer_2" xmlns="http://www.w3.org/2000/svg" viewBox="0 0 93.35 74.68"><defs><style>.cls-1{fill:#f5efdf;stroke-width:0px;}</style></defs><g id="Layer_1-2"><path class="cls-1" d="m91.52,24.99c-2.4-4.54-7.1-7.76-12.19-8.38-6.4-.57-12.71,1.74-18.98,2.79-2.01.41-3.71-1.53-3.02-3.48C61.33,5.04,50.14-.86,40.68.1c-6.32.03-8.03,6.68-12.76,9.44-2.23,1.18-5.09,1.73-7.49,2.54C14.38,14.15,1.96,14.03.16,21.63c-1.14,5.64,4.07,9.73,8.21,12.44,2.14,1.46,4.3,2.93,6.66,4.04,2.17,1.29,4.51,1.09,6.58,2.21,3.96,2.89,2.72,10.75.99,14.65-1.87,4.17-5.46,7.97-2.88,13.08,2.47,4.62,8,6.03,12.82,6.44,5.84.55,12.18.07,16.77-3.57,1.89-1.5,3.4-3.48,5.46-4.75,6.54-4.02,16.25.39,22.16-4.52,3.08-2.54,4.01-6.78,5.99-10.24,2.42-4.2,6.47-7.32,8.68-11.62,2.34-4.56,2.3-10.26-.1-14.79ZM12.01,31.01c-2.96-1.6-6.04-4.17-6.01-7.79,0-3.21,2.81-6.48,6.15-6.22.11,0,.22.02.33.03.11.03.23.03.32.06.05.02.09.07.1.15,0,.2-.17.26-.32.33-3.58,1.7-4.53,6.23-1.97,9.25.87,1.31,2.02,2.52,2.78,3.91.16.98-.87.62-1.37.28Zm15.19-10.38c1.93-.52,4.67.02,5.78-2.05.17-.35.26-.76.55-1.03.34-.33.88-.33,1.34-.32,2.66-.08,3.71,1.22,4.01,3.78.13.85.16,1.9-.56,2.34-1.53.43-3.03.26-4.7,1.07-2.37,1.04-5.12,3.17-7.74,1.74-2.52-1.46-1-4.91,1.31-5.54Zm22.35,43.21c-3.17.48-6.04,1.66-8.23,4.06-1.31,1.43-3.22,2.12-5.12,2.27-7.16.56-12.74-5.13-10.06-12.27.09-.25.63-1.81,1.08-1.22.17.22.23.69.18.94-.25,1.4-.52,2.95-.09,4.34,1.36,4.17,6.76,6.02,10.7,4.65,1.34-.47,2.18-1.37,3.49-2.17,2.5-1.39,5.38-1.68,8.06-1.05.24.05.23.41-.01.45Zm8.91-3.09c-.48.6-.89,1.15-1.74,1.34-.52.07-1.12-.04-1.64-.13-.59-.11-1.53-.37-1.58-1.1,0-.27.1-.57.3-.76.75-.53,1.71.51,2.47.17.33-.2.55-.66.9-.92,1.21-.88,2,.53,1.29,1.41Zm2.35-18.32c-.76.95-2.07,1.26-3.28,1.51-2.77.56-5.59,1.13-8.08,2.45-.97.52-1.88,1.15-2.9,1.58-8.1,2.88-11.14-3.97-4.35-8.84,3.82-2.79,8.73-2.44,13.18-3.41,1.15-.2,2.46-.28,3.5.35,1.88,1.28,3.47,4.3,1.92,6.36Z"/></g></svg>