<?xml version="1.0" encoding="UTF-8"?><svg id="Layer_2" xmlns="http://www.w3.org/2000/svg" viewBox="0 0 72.75 58.16"><defs><style>.cls-1{fill:#fcf8f2;stroke-width:0px;}</style></defs><g id="Layer_1-2"><path class="cls-1" d="m71.33,19.45c-1.87-3.54-5.53-6.05-9.5-6.53-2.69-.32-5.4.23-8.05.78-2.25.47-4.49.93-6.74,1.39-1.56.32-2.89-1.19-2.35-2.72.43-1.23.72-2.52.63-3.84-.22-3.29-2.41-5.76-5.31-7.13C37.49.22,34.48-.15,31.71.05c-1.43.11-2.86.52-3.99,1.39-.65.52-1.18,1.17-1.72,1.81-1.16,1.34-2.64,3.3-4.23,4.15-1.74.92-3.96,1.35-5.83,1.98-4.72,1.61-14.39,1.52-15.8,7.44-.27,1.13-.13,2.32.3,3.4,1.15,2.9,3.66,4.64,6.1,6.3,1.67,1.13,3.35,2.28,5.19,3.14.8.37,1.55.72,2.41.91.93.21,1.9.29,2.72.82.86.55,1.4,1.5,1.66,2.48.74,2.84.3,6.29-.89,8.93-1.46,3.25-4.26,6.21-2.24,10.19.35.68.82,1.3,1.38,1.84,2.35,2.24,5.52,2.89,8.61,3.18,4.55.43,9.49.06,13.06-2.78,1.47-1.17,2.65-2.72,4.26-3.7,5.1-3.14,12.66.3,17.27-3.52,2.4-1.98,3.12-5.29,4.67-7.98,1.89-3.28,5.04-5.7,6.77-9.06,1.82-3.56,1.79-8-.08-11.52Zm-60.87,5.66c-2.02-1.35-4.6-1.51-5.78-3.96-.07-.16-.16-.31-.23-.46-.07-.16-.12-.32-.17-.49-.09-.33-.15-.67-.17-1.01-.02-.34,0-.69.05-1.02.05-.34.13-.68.25-1,.11-.32.25-.63.43-.92.17-.29.37-.56.59-.81.22-.24.47-.46.74-.65.27-.19.57-.34.88-.45.16-.06.32-.1.48-.13.08-.02.17-.03.25-.05.04,0,.08,0,.13-.01s.09-.02.13-.01c.04,0,.08.03.11.09,0,.03,0,.05,0,.08,0,.11-.1.17-.18.24s-.15.15-.22.23c-.14.15-.27.31-.4.47-.23.3-.43.63-.59.98-.15.33-.26.67-.33,1.02-.06.34-.09.68-.07,1.03.02.34.08.68.17,1.01.1.34.25.66.42.96.18.32.4.61.65.88.27.29.57.55.88.78.22.16.45.3.68.43.8.55,1.5,1.35,1.91,2.24.19.4-.27.79-.64.54Zm10.75-9.06c.8-.23,1.65-.2,2.46-.33.82-.14,1.67-.51,2.04-1.27.13-.27.2-.6.43-.8.26-.25.68-.25,1.05-.25.71.03,1.45.07,2.03.48.75.54.95,1.56,1.1,2.47.1.66.13,1.48-.44,1.82-.25.14-.56.15-.85.17-.97.06-1.92.29-2.81.67-.99.42-1.9,1.02-2.91,1.4-1.01.37-2.19.49-3.12-.05-1.96-1.14-.78-3.82,1.02-4.31Zm17.41,33.67c-2.47.37-4.7,1.29-6.41,3.17-3.51,3.2-10.07,1.78-12.02-2.55,0,0-.01-.02-.01-.03-.25-.75-.21-1.47-.12-2.06.11-.75.26-1.49.41-2.23.14-.65.2-1.46.56-2.01.06-.09.11-.12.15-.12.08,0,.13.11.14.23.03.27.06.54.08.81.06.56.1,1.12.14,1.68.08,1.13.03,2.39.39,3,0,0,.01.02.02.03,1.54,2.14,5.16,3.19,7.68,2.25,1.04-.37,1.7-1.07,2.72-1.69,1.95-1.08,4.19-1.31,6.28-.82.19.04.18.32,0,.35Zm6.94-2.41c-.17.23-.36.45-.58.64-.17.15-.44.35-.78.4-.06,0-.12.01-.18.01-.17,0-.33-.03-.47-.06-.48-.11-1.04-.28-1.6-.69l-.24-.17.09-.28c.09-.28.34-.45.65-.46.2.02.36.07.49.12.42.17.72.21.9.11.11-.06.21-.18.32-.32.11-.13.23-.28.38-.4.3-.24.67-.28.93-.1.14.1.24.25.28.42.07.35-.14.68-.2.77Zm1.83-14.28c-.59.74-1.61.98-2.55,1.18-2.15.43-4.36.88-6.3,1.91-.76.4-1.47.9-2.26,1.23-1.53.65-3.33.66-4.87.03-.45-.18-.91-.45-1.16-.87-.74-1.27.65-3.05,1.19-4.16.59-1.21,1.36-2.18,2.61-2.76,1.13-.54,2.4-.74,3.64-.94,2.03-.31,4.06-.63,6.09-.94.47-.07.95-.14,1.4,0,.46.14.83.46,1.16.79.59.61,1.13,1.3,1.39,2.11.25.81.18,1.76-.35,2.43Z"/></g></svg>