<svg width="27" height="24" viewBox="0 0 27 24" fill="none" xmlns="http://www.w3.org/2000/svg">
<g filter="url(#filter0_d_6_424)">
<path fill-rule="evenodd" clip-rule="evenodd" d="M14.0375 7.9527H13.6365V7.95673C13.1789 7.9753 12.8345 8.05621 12.8345 8.1532C12.8345 8.25019 13.1789 8.3311 13.6365 8.34967V8.76669C13.1789 8.82241 12.8345 9.06513 12.8345 9.35611C12.8345 9.45213 12.872 9.54289 12.9387 9.62341C9.39822 10.1757 9.22588 13.9672 9.22588 13.9672H8.42395V16.1725H19.25V13.9672H18.448C18.448 13.9672 18.2757 10.1757 14.7352 9.62341C14.8018 9.54289 14.8393 9.45213 14.8393 9.35611C14.8393 9.06515 14.495 8.82244 14.0375 8.7667V8.34967C14.495 8.33109 14.8393 8.25019 14.8393 8.1532C14.8393 8.05621 14.495 7.97531 14.0375 7.95673V7.9527Z" fill="white"/>
</g>
<defs>
<filter id="filter0_d_6_424" x="0.92395" y="0.452698" width="25.826" height="23.2198" filterUnits="userSpaceOnUse" color-interpolation-filters="sRGB">
<feFlood flood-opacity="0" result="BackgroundImageFix"/>
<feColorMatrix in="SourceAlpha" type="matrix" values="0 0 0 0 0 0 0 0 0 0 0 0 0 0 0 0 0 0 127 0" result="hardAlpha"/>
<feOffset/>
<feGaussianBlur stdDeviation="3.75"/>
<feComposite in2="hardAlpha" operator="out"/>
<feColorMatrix type="matrix" values="0 0 0 0 0 0 0 0 0 0 0 0 0 0 0 0 0 0 0.76 0"/>
<feBlend mode="normal" in2="BackgroundImageFix" result="effect1_dropShadow_6_424"/>
<feBlend mode="normal" in="SourceGraphic" in2="effect1_dropShadow_6_424" result="shape"/>
</filter>
</defs>
</svg>
