<svg width="19" height="15" viewBox="0 0 19 15" fill="none" xmlns="http://www.w3.org/2000/svg">
<mask id="path-1-inside-1_213_8" fill="white">
<path fill-rule="evenodd" clip-rule="evenodd" d="M9.71122 0H9.01757V0.00697087C8.22598 0.0390953 7.63016 0.179062 7.63016 0.34686C7.63016 0.514659 8.22598 0.654625 9.01757 0.686749V1.40816C8.22598 1.50453 7.63016 1.92443 7.63016 2.42783C7.63016 2.59392 7.69502 2.75093 7.81038 2.89022C1.68543 3.84559 1.38729 10.4048 1.38729 10.4048H0V14.2198H18.7284V10.4048H17.3411C17.3411 10.4048 17.0429 3.84569 10.9181 2.89024C11.0335 2.75095 11.0984 2.59393 11.0984 2.42783C11.0984 1.92449 10.5027 1.50463 9.71122 1.40819V0.686739C10.5027 0.654594 11.0984 0.51464 11.0984 0.34686C11.0984 0.17908 10.5027 0.0391259 9.71122 0.0069814V0Z"/>
</mask>
<path fill-rule="evenodd" clip-rule="evenodd" d="M9.71122 0H9.01757V0.00697087C8.22598 0.0390953 7.63016 0.179062 7.63016 0.34686C7.63016 0.514659 8.22598 0.654625 9.01757 0.686749V1.40816C8.22598 1.50453 7.63016 1.92443 7.63016 2.42783C7.63016 2.59392 7.69502 2.75093 7.81038 2.89022C1.68543 3.84559 1.38729 10.4048 1.38729 10.4048H0V14.2198H18.7284V10.4048H17.3411C17.3411 10.4048 17.0429 3.84569 10.9181 2.89024C11.0335 2.75095 11.0984 2.59393 11.0984 2.42783C11.0984 1.92449 10.5027 1.50463 9.71122 1.40819V0.686739C10.5027 0.654594 11.0984 0.51464 11.0984 0.34686C11.0984 0.17908 10.5027 0.0391259 9.71122 0.0069814V0Z" fill="#FFEE51"/>
<path d="M9.01757 0V-1.5H7.51757V0H9.01757ZM9.71122 0H11.2112V-1.5H9.71122V0ZM9.01757 0.00697087L9.0784 1.50574L10.5176 1.44733V0.00697087H9.01757ZM9.01757 0.686749H10.5176V-0.753612L9.0784 -0.812017L9.01757 0.686749ZM9.01757 1.40816L9.19885 2.89717L10.5176 2.73662V1.40816H9.01757ZM7.81038 2.89022L8.04156 4.3723L10.6487 3.96565L8.96564 1.93346L7.81038 2.89022ZM1.38729 10.4048V11.9048H2.82065L2.88574 10.4729L1.38729 10.4048ZM0 10.4048V8.90479H-1.5V10.4048H0ZM0 14.2198H-1.5V15.7198H0V14.2198ZM18.7284 14.2198V15.7198H20.2284V14.2198H18.7284ZM18.7284 10.4048H20.2284V8.90479H18.7284V10.4048ZM17.3411 10.4048L15.8426 10.4729L15.9077 11.9048H17.3411V10.4048ZM10.9181 2.89024L9.76291 1.93345L8.0798 3.96562L10.6869 4.37232L10.9181 2.89024ZM9.71122 1.40819H8.21122V2.73652L9.5298 2.89718L9.71122 1.40819ZM9.71122 0.686739L9.65035 -0.812026L8.21122 -0.753577V0.686739H9.71122ZM9.71122 0.0069814H8.21122V1.4473L9.65035 1.50575L9.71122 0.0069814ZM9.01757 1.5H9.71122V-1.5H9.01757V1.5ZM10.5176 0.00697087V0H7.51757V0.00697087H10.5176ZM9.13016 0.34686C9.13016 0.801324 8.9218 1.1216 8.77547 1.28525C8.6372 1.43988 8.50283 1.51763 8.45399 1.54428C8.35448 1.59856 8.30783 1.60138 8.37977 1.58397C8.4994 1.55502 8.7407 1.51944 9.0784 1.50574L8.95675 -1.4918C8.50285 -1.47338 8.05044 -1.42291 7.67426 -1.33189C7.4983 -1.28932 7.25323 -1.21805 7.01726 -1.08932C6.90019 -1.02545 6.71308 -0.908983 6.53914 -0.714458C6.35713 -0.510912 6.13016 -0.149553 6.13016 0.34686H9.13016ZM9.0784 -0.812017C8.7407 -0.825721 8.4994 -0.861304 8.37977 -0.890249C8.30783 -0.907655 8.35448 -0.904844 8.45399 -0.850556C8.50283 -0.823911 8.6372 -0.746158 8.77547 -0.59153C8.9218 -0.427883 9.13016 -0.107603 9.13016 0.34686H6.13016C6.13016 0.843273 6.35713 1.20463 6.53914 1.40818C6.71308 1.6027 6.90019 1.71917 7.01726 1.78304C7.25323 1.91177 7.4983 1.98304 7.67426 2.02561C8.05044 2.11663 8.50285 2.1671 8.95675 2.18552L9.0784 -0.812017ZM10.5176 1.40816V0.686749H7.51757V1.40816H10.5176ZM9.13016 2.42783C9.13016 2.60915 9.07408 2.75607 9.0156 2.85177C8.9613 2.94065 8.91125 2.97703 8.90816 2.97928C8.90351 2.98265 8.92435 2.96708 8.97939 2.94706C9.0329 2.92761 9.10683 2.90837 9.19885 2.89717L8.83629 -0.0808445C8.24314 -0.00863047 7.64088 0.192137 7.14588 0.551446C6.65956 0.904451 6.13016 1.53606 6.13016 2.42783H9.13016ZM8.96564 1.93346C9.02935 2.01039 9.13016 2.18165 9.13016 2.42783H6.13016C6.13016 3.0062 6.3607 3.49147 6.65513 3.84698L8.96564 1.93346ZM1.38729 10.4048C2.88574 10.4729 2.88571 10.4736 2.88568 10.4742C2.88567 10.4744 2.88564 10.475 2.88563 10.4753C2.88559 10.476 2.88556 10.4766 2.88554 10.4772C2.88549 10.4782 2.88545 10.4789 2.88544 10.4791C2.88541 10.4797 2.88546 10.4787 2.8856 10.4763C2.88589 10.4715 2.88657 10.4609 2.88779 10.4449C2.89024 10.4127 2.89486 10.359 2.9029 10.2866C2.91903 10.1413 2.94867 9.92295 3.00148 9.65396C3.10804 9.11118 3.30378 8.38877 3.65554 7.65219C4.34431 6.20996 5.59486 4.75394 8.04156 4.3723L7.57921 1.40814C3.90096 1.98187 1.93995 4.28313 0.948415 6.35934C0.460027 7.38199 0.19842 8.35909 0.0576714 9.07602C-0.0131733 9.43688 -0.0546777 9.73843 -0.0787832 9.9556C-0.0908559 10.0644 -0.0986231 10.1525 -0.103532 10.2169C-0.105988 10.2491 -0.107733 10.2755 -0.108945 10.2956C-0.109551 10.3056 -0.110024 10.3141 -0.110387 10.3209C-0.110568 10.3244 -0.110722 10.3274 -0.110851 10.33C-0.110915 10.3313 -0.110974 10.3326 -0.111026 10.3337C-0.111052 10.3342 -0.111087 10.335 -0.1111 10.3352C-0.111134 10.336 -0.111166 10.3367 1.38729 10.4048ZM0 11.9048H1.38729V8.90479H0V11.9048ZM1.5 14.2198V10.4048H-1.5V14.2198H1.5ZM18.7284 12.7198H0V15.7198H18.7284V12.7198ZM17.2284 10.4048V14.2198H20.2284V10.4048H17.2284ZM17.3411 11.9048H18.7284V8.90479H17.3411V11.9048ZM10.6869 4.37232C13.1336 4.75398 14.3841 6.21 15.0728 7.65223C15.4246 8.3888 15.6203 9.1112 15.7269 9.65397C15.7797 9.92296 15.8093 10.1413 15.8255 10.2866C15.8335 10.359 15.8381 10.4128 15.8406 10.4449C15.8418 10.4609 15.8425 10.4715 15.8428 10.4763C15.8429 10.4787 15.843 10.4797 15.8429 10.4791C15.8429 10.4789 15.8429 10.4782 15.8428 10.4772C15.8428 10.4766 15.8428 10.476 15.8427 10.4753C15.8427 10.475 15.8427 10.4744 15.8427 10.4742C15.8427 10.4736 15.8426 10.4729 17.3411 10.4048C18.8395 10.3367 18.8395 10.336 18.8395 10.3352C18.8395 10.335 18.8394 10.3342 18.8394 10.3337C18.8393 10.3326 18.8393 10.3313 18.8392 10.33C18.8391 10.3274 18.8389 10.3244 18.8388 10.3209C18.8384 10.3141 18.8379 10.3056 18.8373 10.2956C18.8361 10.2755 18.8344 10.2491 18.8319 10.2169C18.827 10.1525 18.8192 10.0644 18.8072 9.95561C18.7831 9.73844 18.7415 9.4369 18.6707 9.07604C18.53 8.35912 18.2684 7.38203 17.78 6.35939C16.7885 4.2832 14.8275 1.98195 11.1493 1.40817L10.6869 4.37232ZM9.59838 2.42783C9.59838 2.18163 9.6992 2.01037 9.76291 1.93345L12.0734 3.84704C12.3678 3.49152 12.5984 3.00624 12.5984 2.42783H9.59838ZM9.5298 2.89718C9.6218 2.90839 9.6957 2.92763 9.74919 2.94708C9.80421 2.96709 9.82503 2.98266 9.82037 2.97927C9.81726 2.97702 9.76721 2.94062 9.71291 2.85175C9.65444 2.75604 9.59838 2.60913 9.59838 2.42783H12.5984C12.5984 1.53616 12.0691 0.904584 11.5828 0.551567C11.0879 0.192254 10.4857 -0.00853513 9.89264 -0.0807958L9.5298 2.89718ZM8.21122 0.686739V1.40819H11.2112V0.686739H8.21122ZM9.59838 0.34686C9.59838 -0.107552 9.80669 -0.427814 9.95301 -0.591476C10.0913 -0.746115 10.2257 -0.823879 10.2745 -0.850533C10.374 -0.904838 10.4207 -0.907658 10.3488 -0.890257C10.2292 -0.86132 9.98798 -0.825738 9.65035 -0.812026L9.77209 2.1855C10.2259 2.16707 10.6783 2.1166 11.0544 2.02558C11.2303 1.98301 11.4754 1.91173 11.7114 1.78299C11.8284 1.71912 12.0155 1.60264 12.1895 1.40811C12.3714 1.20456 12.5984 0.843217 12.5984 0.34686H9.59838ZM9.65035 1.50575C9.98798 1.51946 10.2292 1.55504 10.3488 1.58398C10.4207 1.60138 10.374 1.59856 10.2745 1.54425C10.2257 1.5176 10.0913 1.43983 9.95301 1.2852C9.80669 1.12153 9.59838 0.801272 9.59838 0.34686H12.5984C12.5984 -0.149497 12.3714 -0.510835 12.1895 -0.71439C12.0155 -0.908922 11.8284 -1.0254 11.7114 -1.08927C11.4754 -1.21801 11.2303 -1.28928 11.0544 -1.33186C10.6783 -1.42288 10.2259 -1.47335 9.77209 -1.49178L9.65035 1.50575ZM8.21122 0V0.0069814H11.2112V0H8.21122Z" fill="#4D4D4D" mask="url(#path-1-inside-1_213_8)"/>
</svg>
