<svg width="19" height="15" viewBox="0 0 19 15" fill="none" xmlns="http://www.w3.org/2000/svg">
<path fill-rule="evenodd" clip-rule="evenodd" d="M9.71122 0H9.01757V0.00697087C8.22598 0.0390953 7.63016 0.179062 7.63016 0.34686C7.63016 0.514659 8.22598 0.654625 9.01757 0.686749V1.40816C8.22598 1.50453 7.63016 1.92443 7.63016 2.42783C7.63016 2.59392 7.69502 2.75093 7.81038 2.89022C1.68543 3.84559 1.38729 10.4048 1.38729 10.4048H0V14.2198H18.7284V10.4048H17.3411C17.3411 10.4048 17.0429 3.84569 10.9181 2.89024C11.0335 2.75095 11.0984 2.59393 11.0984 2.42783C11.0984 1.92449 10.5027 1.50463 9.71122 1.40819V0.686739C10.5027 0.654594 11.0984 0.51464 11.0984 0.34686C11.0984 0.17908 10.5027 0.0391259 9.71122 0.0069814V0Z" fill="#BCBCBC"/>
</svg>
