<?xml version="1.0" encoding="UTF-8"?><svg id="Layer_2" xmlns="http://www.w3.org/2000/svg" viewBox="0 0 143.4 162.12"><defs><style>.cls-1{fill:#a09f9f;stroke-width:0px;}</style></defs><g id="Layer_1-2"><path class="cls-1" d="m83.52,19.7v-4.7h5.49c3.13,0,5.67-2.54,5.67-5.67v-3.66c0-3.13-2.54-5.67-5.67-5.67h-34.62c-3.13,0-5.67,2.54-5.67,5.67v3.66c0,3.13,2.54,5.67,5.67,5.67h5.49v4.7C25.95,25.34,0,54.9,0,90.42c0,39.54,32.16,71.7,71.7,71.7s71.7-32.16,71.7-71.7c0-35.52-25.95-65.08-59.88-70.72Zm-11.82,124.42c-29.61,0-53.7-24.09-53.7-53.7s24.09-53.7,53.7-53.7,53.7,24.09,53.7,53.7-24.09,53.7-53.7,53.7Z"/><line class="cls-1" x1="71.52" y1="89.52" x2="93.48" y2="67.56"/><path class="cls-1" d="m81.55,84.44h0c1.06,1.75,1.67,3.79,1.67,5.98,0,6.36-5.16,11.52-11.52,11.52s-11.52-5.16-11.52-11.52,5.16-11.52,11.52-11.52c1.62,0,3.16.34,4.56.94l14.75-14.75c1.36-1.37,3.58-1.37,4.95,0s1.36,3.58,0,4.94l-14.41,14.41Z"/></g></svg>