<?xml version="1.0" encoding="UTF-8"?><svg id="Layer_2" xmlns="http://www.w3.org/2000/svg" viewBox="0 0 135.05 135"><defs><style>.cls-1{fill:#bcbcbc;stroke-width:0px;}</style></defs><g id="Layer_1-2"><path class="cls-1" d="m36.05,91.39c0-10.45.13-20.91-.07-31.36-.07-3.35,1.23-5.43,3.65-7.53,4.6-4,9.41-7.93,13.18-12.65,3.5-4.39,6.05-9.63,8.48-14.76,2.31-4.89,3.83-10.14,5.87-15.16.84-2.08,1.89-4.18,3.3-5.9,2.78-3.4,6.58-4.63,10.89-3.74,4.53.94,7.55,3.61,8.78,8.2,1.96,7.33,1.21,14.69.25,22.03-.59,4.49-1.33,8.98-2.31,13.4-.58,2.66.06,3.57,2.81,3.53,8.28-.11,16.57-.11,24.85-.01,8.06.1,13.92,5.04,14.67,12.57.23,2.26-.29,4.72-1.03,6.9-.58,1.73-.56,2.8.72,4.18,6.56,7.05,6.61,12.95.17,20.33-1.28,1.47-1.55,2.66-.88,4.48,2.32,6.32,1.15,11.87-4.26,16.15-1.58,1.25-1.81,2.38-1.17,4.28,3.18,9.49-3.25,18.64-13.23,18.63-14.49-.02-29.03.35-43.45-.73-9.63-.72-19.1-3.65-28.63-5.64-2.36-.49-2.58-2.33-2.57-4.35.03-10.95.02-21.9.02-32.84h-.01Z"/><path class="cls-1" d="m27.96,92.67c0,9.96-.08,19.92.05,29.87.04,2.71-.85,3.66-3.56,3.6-6.11-.15-12.22-.03-18.34-.07-4.65-.03-6.08-1.41-6.09-5.96C0,101.77,0,83.43,0,65.1c0-4.41,1.41-5.83,5.87-5.86,6.21-.04,12.42.1,18.63-.07,2.79-.08,3.53,1,3.5,3.63-.11,9.96-.05,19.91-.05,29.87Z"/></g></svg>