<?xml version="1.0" encoding="UTF-8"?><svg id="Layer_2" xmlns="http://www.w3.org/2000/svg" viewBox="0 0 143.92 158.86"><defs><style>.cls-1{fill:#8e8e8e;stroke-width:0px;}</style></defs><g id="Layer_1-2"><path class="cls-1" d="m81.94,15.64v-4.32h7.33c2.11,0,3.83-1.72,3.83-3.83v-3.66c0-2.11-1.72-3.83-3.83-3.83h-34.62c-2.11,0-3.83,1.72-3.83,3.83v3.66c0,2.11,1.72,3.83,3.83,3.83h7.33v4.32C27.01,20.5,0,50.61,0,86.9c0,39.68,32.28,71.96,71.96,71.96s71.96-32.28,71.96-71.96c0-36.29-27.01-66.4-61.98-71.26Zm-9.98,133.22c-34.17,0-61.96-27.8-61.96-61.96s27.79-61.96,61.96-61.96,61.96,27.79,61.96,61.96-27.8,61.96-61.96,61.96Z"/><circle class="cls-1" cx="71.96" cy="86.9" r="9.36"/><line class="cls-1" x1="72.32" y1="85.82" x2="98.06" y2="60.08"/><path class="cls-1" d="m72.32,89.27c-.88,0-1.76-.34-2.44-1.01-1.35-1.35-1.35-3.53,0-4.87l25.74-25.74c1.35-1.35,3.53-1.35,4.87,0s1.35,3.53,0,4.87l-25.74,25.74c-.67.67-1.55,1.01-2.44,1.01Z"/></g></svg>