<?xml version="1.0" encoding="UTF-8"?><svg id="Layer_2" xmlns="http://www.w3.org/2000/svg" viewBox="0 0 27 32"><defs><style>.cls-1{fill:#ef0000;}</style></defs><g id="Layer_1-2"><path class="cls-1" d="m24.5,4h-6.62c0-2.21-1.97-4-4.38-4s-4.38,1.79-4.38,4H2.5c-1.38,0-2.5,1.12-2.5,2.5v1c0,1.27.95,2.32,2.17,2.48l1.71,19.7c.12,1.32,1.2,2.32,2.53,2.32h14.18c1.33,0,2.41-1,2.53-2.32l1.71-19.7c1.22-.16,2.17-1.21,2.17-2.48v-1c0-1.38-1.12-2.5-2.5-2.5Zm-11-2c1.31,0,2.38.9,2.38,2h-4.76c0-1.1,1.07-2,2.38-2Zm7.63,27.51c-.03.28-.26.49-.54.49H6.41c-.28,0-.51-.21-.54-.49l-1.69-19.51h18.64l-1.69,19.51Zm3.87-22.01c0,.27-.23.5-.5.5H2.5c-.27,0-.5-.23-.5-.5v-1c0-.27.23-.5.5-.5h22c.27,0,.5.23.5.5v1Z"/><path class="cls-1" d="m9.75,28.94c-.47,0-.87-.35-.93-.82l-1.88-15c-.06-.51.3-.98.81-1.05.51-.07.98.3,1.05.81l1.88,15c.06.51-.3.98-.81,1.05-.04,0-.08,0-.12,0Z"/><path class="cls-1" d="m17.25,28.94s-.08,0-.12,0c-.51-.06-.88-.53-.81-1.05l1.88-15c.06-.51.54-.88,1.05-.81.51.06.88.53.81,1.05l-1.88,15c-.06.47-.46.82-.93.82Z"/><path class="cls-1" d="m13.5,28.94c-.52,0-.94-.42-.94-.94v-15c0-.52.42-.94.94-.94s.94.42.94.94v15c0,.52-.42.94-.94.94Z"/></g></svg>